Coordinates
version=1
nRows=12
nColumns=46
inDegrees=yes

Units are S.I. units (second, meters, Newtons, ...)
Angles are in degrees.

endheader
time	pelvis_tilt	pelvis_list	pelvis_rotation	pelvis_tx	pelvis_ty	pelvis_tz	bb_angle	bb_tx	bb_ty	bb_tz	hip_flexion_r	hip_adduction_r	hip_rotation_r	knee_angle_r	knee_angle_r_beta	ankle_angle_r	subtalar_angle_r	mtp_angle_r	crank_angle_r	hip_flexion_l	hip_adduction_l	hip_rotation_l	knee_angle_l	knee_angle_l_beta	ankle_angle_l	subtalar_angle_l	mtp_angle_l	crank_angle_l	lumbar_extension	lumbar_bending	lumbar_rotation	arm_flex_r	arm_add_r	arm_rot_r	elbow_flex_r	pro_sup_r	wrist_flex_r	wrist_dev_r	arm_flex_l	arm_add_l	arm_rot_l	elbow_flex_l	pro_sup_l	wrist_flex_l	wrist_dev_l
      7.50000000	    -25.29289070	      5.89725905	     -7.65694133	      0.45000618	      1.17024083	     -0.24078438	      0.00000000	      0.50000000	      0.00000000	      0.25000000	     51.06561448	     -3.85826805	     10.21783125	     50.20870945	      0.87630729	      2.90985611	     -6.55163524	      0.00000000	      0.00000000	     42.28154847	      2.30357188	      0.73301825	     72.50033818	      1.26536961	    -19.88272360	    -11.35310626	      0.00000000	      0.00000000	    -61.09088962	    -11.49823732	      3.05966984	     36.81778816	    -48.23854482	     32.77099111	     97.94650844	     58.61270704	      0.00000000	      0.00000000	     45.51895880	    -25.02732256	     32.35836301	     86.28894240	     53.51127214	      0.00000000	      0.00000000
      7.50500000	    -25.39553273	      6.23277058	     -6.82258578	      0.44966507	      1.16825463	     -0.24044169	      0.00000000	      0.50000000	      0.00000000	      0.25000000	     49.72729722	     -4.46457570	     10.48112723	     47.81229314	      0.83448194	      1.17917851	     -7.71929912	      0.00000000	      0.00000000	     43.75270663	      3.21631948	      1.33239425	     75.19453198	      1.31239216	    -18.38410178	    -11.60477748	      0.00000000	      0.00000000	    -60.60179685	    -11.56155561	      2.22750848	     36.17181816	    -46.92751158	     32.05178508	     96.75364064	     58.35672755	      0.00000000	      0.00000000	     45.93383993	    -24.77046228	     32.76075087	     85.36320108	     53.38203656	      0.00000000	      0.00000000
      7.51000000	    -25.42341808	      6.61204767	     -5.76099627	      0.44946122	      1.16643094	     -0.24052209	      0.00000000	      0.50000000	      0.00000000	      0.25000000	     48.22059163	     -5.30986389	     10.60511116	     45.41782463	      0.79269058	     -0.45290646	     -8.78991142	      0.00000000	      0.00000000	     45.11291680	      4.38883109	      2.04596513	     77.74038292	      1.35682564	    -16.95016780	    -11.86971348	      0.00000000	      0.00000000	    -60.35359105	    -11.42650976	      1.20560390	     35.62190560	    -46.30563973	     31.71930627	     96.40112059	     58.27686223	      0.00000000	      0.00000000	     46.30655601	    -24.69629959	     33.01165306	     84.97510231	     53.34175577	      0.00000000	      0.00000000
      7.51500000	    -25.59550356	      6.81193999	     -4.66702082	      0.44898463	      1.16428736	     -0.24015069	      0.00000000	      0.50000000	      0.00000000	      0.25000000	     46.75428498	     -5.89516985	     10.79184049	     43.01994079	      0.75083961	     -2.19299030	    -10.18173455	      0.00000000	      0.00000000	     46.84108854	      5.04961460	      2.60252490	     80.52904636	      1.40549700	    -15.23288441	    -11.14813560	      0.00000000	      0.00000000	    -59.93018437	    -11.25988190	      0.29698451	     34.98272221	    -45.37562521	     31.21100354	     95.82013269	     58.11455248	      0.00000000	      0.00000000	     46.65855229	    -24.95812380	     33.44024791	     84.69655598	     53.33006384	      0.00000000	      0.00000000
      7.52000000	    -25.67877041	      7.32143992	     -3.46743598	      0.44878298	      1.16243964	     -0.24039705	      0.00000000	      0.50000000	      0.00000000	      0.25000000	     45.25968392	     -6.96672362	     10.87825986	     40.73805585	      0.71101321	     -3.83077454	    -11.08373857	      0.00000000	      0.00000000	     48.07169140	      6.69407033	      3.32536148	     82.70568505	      1.44348651	    -13.77736253	    -12.17427053	      0.00000000	      0.00000000	    -59.66909368	    -11.16086359	     -0.92292814	     34.39065339	    -44.64840510	     30.88925688	     95.33503991	     58.01532502	      0.00000000	      0.00000000	     46.93281208	    -25.50658026	     33.92388514	     84.68822147	     53.38414651	      0.00000000	      0.00000000
      7.52500000	    -25.95323816	      7.72750537	     -2.29465675	      0.44841683	      1.16034351	     -0.24024759	      0.00000000	      0.50000000	      0.00000000	      0.25000000	     43.89155126	     -7.81537506	     11.13841691	     38.47440135	      0.67150498	     -5.54741348	    -12.26517241	      0.00000000	      0.00000000	     49.66745074	      7.93597140	      3.88813326	     85.00865431	      1.48368091	    -12.16462927	    -12.45421339	      0.00000000	      0.00000000	    -59.23223695	    -11.15406185	     -2.39221004	     33.98536675	    -42.92659663	     30.32773048	     94.14679355	     57.77966198	      0.00000000	      0.00000000	     47.36077261	    -26.98811982	     35.19258153	     85.30340748	     53.61059423	      0.00000000	      0.00000000
      7.53000000	    -26.21446271	      8.31148956	     -1.17882838	      0.44803819	      1.15841477	     -0.24034939	      0.00000000	      0.50000000	      0.00000000	      0.25000000	     42.57113067	     -8.87092624	     11.55773104	     36.40616741	      0.63540749	     -6.52490696	    -12.16785040	      0.00000000	      0.00000000	     51.28105637	      9.23529736	      4.10410849	     87.21205405	      1.52213749	    -10.74505694	    -12.91373144	      0.00000000	      0.00000000	    -58.94508540	    -11.26789488	     -3.55027140	     33.52268986	    -42.80796154	     30.43078306	     93.96788561	     57.76329594	      0.00000000	      0.00000000	     47.67834479	    -27.11031658	     35.26026973	     85.34791279	     53.61387854	      0.00000000	      0.00000000
      7.53500000	    -26.64325449	      8.42692861	      0.28589483	      0.44774956	      1.15659433	     -0.24034803	      0.00000000	      0.50000000	      0.00000000	      0.25000000	     41.14626874	     -9.64370143	     11.33285448	     34.06264968	      0.59450539	     -8.86603494	    -14.06975387	      0.00000000	      0.00000000	     53.03653394	     10.39443470	      4.93668880	     89.39475899	      1.56023288	     -8.97818521	    -12.30211090	      0.00000000	      0.00000000	    -58.38138350	    -10.83011757	     -5.19345784	     33.60486349	    -40.55937258	     30.28938569	     92.38126456	     57.51666783	      0.00000000	      0.00000000	     47.92012440	    -29.26352664	     36.55820713	     86.21275013	     53.88238444	      0.00000000	      0.00000000
      7.54000000	    -27.11561066	      8.61427185	      1.82585021	      0.44737354	      1.15475686	     -0.24055101	      0.00000000	      0.50000000	      0.00000000	      0.25000000	     39.82540755	    -10.59845741	     10.94611119	     31.96835448	      0.55795304	    -10.38814753	    -14.81277882	      0.00000000	      0.00000000	     55.03012420	     11.37959883	      5.40888715	     91.59499668	      1.59863427	     -7.50276671	    -11.47590898	      0.00000000	      0.00000000	    -57.87439426	    -10.42500455	     -6.58365256	     33.43025980	    -39.54888152	     30.42971032	     91.71435276	     57.41893929	      0.00000000	      0.00000000	     48.17639953	    -30.20094127	     37.01380318	     86.51086807	     53.95182562	      0.00000000	      0.00000000
      7.54500000	    -27.55446058	      9.14082027	      3.23944257	      0.44742135	      1.15334743	     -0.24072769	      0.00000000	      0.50000000	      0.00000000	      0.25000000	     38.50863645	    -11.83890250	     10.63087984	     29.92074797	      0.52221557	    -11.85653978	    -15.18425483	      0.00000000	      0.00000000	     56.53106845	     12.97517592	      5.58267046	     93.14007112	      1.62560091	     -6.27631916	    -12.49725941	      0.00000000	      0.00000000	    -57.42429068	    -10.25098943	     -9.59173909	     35.89084769	    -37.02048146	     33.24264564	     88.69099690	     57.57519474	      0.00000000	      0.00000000	     46.90625224	    -32.93878004	     36.18306133	     88.67980376	     54.13703344	      0.00000000	      0.00000000
      7.55000000	    -28.08925573	      9.36507197	      4.82613136	      0.44722084	      1.15160866	     -0.24109471	      0.00000000	      0.50000000	      0.00000000	      0.25000000	     37.27711513	    -12.91360975	      9.83588323	     28.07947495	      0.49007929	    -13.26605283	    -15.65929231	      0.00000000	      0.00000000	     58.39266264	     14.17100894	      5.81338203	     94.89093888	      1.65615931	     -5.02346679	    -12.50784528	      0.00000000	      0.00000000	    -56.91270113	     -9.91856587	    -10.83448286	     35.34793408	    -36.11001297	     32.96403148	     88.10388845	     57.45715865	      0.00000000	      0.00000000	     47.22186168	    -33.60924064	     36.63694400	     88.90825508	     54.18997218	      0.00000000	      0.00000000
      7.55500000	    -28.78649908	      9.38207597	      6.47439798	      0.44693615	      1.14969921	     -0.24151474	      0.00000000	      0.50000000	      0.00000000	      0.25000000	     36.17273833	    -13.82298591	      8.80102980	     26.26884525	      0.45847784	    -14.69686211	    -15.94832053	      0.00000000	      0.00000000	     60.61019812	     14.96241892	      5.94759166	     96.71097736	      1.68792498	     -3.71174427	    -12.15545828	      0.00000000	      0.00000000	    -56.23388779	     -9.50084011	    -12.26920120	     34.91486673	    -34.71417670	     32.54476076	     86.98005697	     57.27335441	      0.00000000	      0.00000000	     47.43793826	    -34.86153007	     37.55748809	     89.75595638	     54.37985169	      0.00000000	      0.00000000
